{
    "asset" : {
        "generator" : "Khronos glTF Blender I/O v1.6.16",
        "version" : "2.0"
    },
    "scene" : 0,
    "scenes" : [
        {
            "name" : "Scene",
            "nodes" : [
                0
            ]
        }
    ],
    "nodes" : [
        {
            "mesh" : 0,
            "name" : "curly fry. export"
        }
    ],
    "meshes" : [
        {
            "name" : "Spiral.004",
            "primitives" : [
                {
                    "attributes" : {
                        "POSITION" : 0,
                        "NORMAL" : 1,
                        "TEXCOORD_0" : 2
                    },
                    "indices" : 3
                }
            ]
        }
    ],
    "accessors" : [
        {
            "bufferView" : 0,
            "componentType" : 5126,
            "count" : 1250,
            "max" : [
                3.055067300796509,
                5.502391815185547,
                1.6593183279037476
            ],
            "min" : [
                -1.6481497287750244,
                -5.544768810272217,
                -1.729529857635498
            ],
            "type" : "VEC3"
        },
        {
            "bufferView" : 1,
            "componentType" : 5126,
            "count" : 1250,
            "type" : "VEC3"
        },
        {
            "bufferView" : 2,
            "componentType" : 5126,
            "count" : 1250,
            "type" : "VEC2"
        },
        {
            "bufferView" : 3,
            "componentType" : 5123,
            "count" : 6912,
            "type" : "SCALAR"
        }
    ],
    "bufferViews" : [
        {
            "buffer" : 0,
            "byteLength" : 15000,
            "byteOffset" : 0
        },
        {
            "buffer" : 0,
            "byteLength" : 15000,
            "byteOffset" : 15000
        },
        {
            "buffer" : 0,
            "byteLength" : 10000,
            "byteOffset" : 30000
        },
        {
            "buffer" : 0,
            "byteLength" : 13824,
            "byteOffset" : 40000
        }
    ],
    "buffers" : [
        {
            "byteLength" : 53824,
            "uri" : "data:application/octet-stream;base64,"
        }
    ]
}
