{
    "asset" : {
        "generator" : "Khronos glTF Blender I/O v1.6.16",
        "version" : "2.0"
    },
    "scene" : 0,
    "scenes" : [
        {
            "name" : "Scene",
            "nodes" : [
                0
            ]
        }
    ],
    "nodes" : [
        {
            "mesh" : 0,
            "name" : "ridged export"
        }
    ],
    "meshes" : [
        {
            "name" : "Circle.020",
            "primitives" : [
                {
                    "attributes" : {
                        "POSITION" : 0,
                        "NORMAL" : 1,
                        "TEXCOORD_0" : 2
                    },
                    "indices" : 3
                }
            ]
        }
    ],
    "accessors" : [
        {
            "bufferView" : 0,
            "componentType" : 5126,
            "count" : 3400,
            "max" : [
                2.4466028213500977,
                3.0741045475006104,
                0.14323560893535614
            ],
            "min" : [
                -2.44521427154541,
                -3.0739011764526367,
                -0.5798277258872986
            ],
            "type" : "VEC3"
        },
        {
            "bufferView" : 1,
            "componentType" : 5126,
            "count" : 3400,
            "type" : "VEC3"
        },
        {
            "bufferView" : 2,
            "componentType" : 5126,
            "count" : 3400,
            "type" : "VEC2"
        },
        {
            "bufferView" : 3,
            "componentType" : 5123,
            "count" : 5148,
            "type" : "SCALAR"
        }
    ],
    "bufferViews" : [
        {
            "buffer" : 0,
            "byteLength" : 40800,
            "byteOffset" : 0
        },
        {
            "buffer" : 0,
            "byteLength" : 40800,
            "byteOffset" : 40800
        },
        {
            "buffer" : 0,
            "byteLength" : 27200,
            "byteOffset" : 81600
        },
        {
            "buffer" : 0,
            "byteLength" : 10296,
            "byteOffset" : 108800
        }
    ],
    "buffers" : [
        {
            "byteLength" : 119096,
            "uri" : "data:application/octet-stream;base64,"
        }
    ]
}
