{
    "asset" : {
        "generator" : "Khronos glTF Blender I/O v1.6.16",
        "version" : "2.0"
    },
    "scene" : 0,
    "scenes" : [
        {
            "name" : "Scene",
            "nodes" : [
                0
            ]
        }
    ],
    "nodes" : [
        {
            "mesh" : 0,
            "name" : "waffle export"
        }
    ],
    "meshes" : [
        {
            "name" : "Circle.018",
            "primitives" : [
                {
                    "attributes" : {
                        "POSITION" : 0,
                        "NORMAL" : 1,
                        "TEXCOORD_0" : 2
                    },
                    "indices" : 3
                }
            ]
        }
    ],
    "accessors" : [
        {
            "bufferView" : 0,
            "componentType" : 5126,
            "count" : 2898,
            "max" : [
                2.3052377700805664,
                3.073322296142578,
                0.40805524587631226
            ],
            "min" : [
                -2.299863338470459,
                -3.0321357250213623,
                -0.4114702045917511
            ],
            "type" : "VEC3"
        },
        {
            "bufferView" : 1,
            "componentType" : 5126,
            "count" : 2898,
            "type" : "VEC3"
        },
        {
            "bufferView" : 2,
            "componentType" : 5126,
            "count" : 2898,
            "type" : "VEC2"
        },
        {
            "bufferView" : 3,
            "componentType" : 5123,
            "count" : 11070,
            "type" : "SCALAR"
        }
    ],
    "bufferViews" : [
        {
            "buffer" : 0,
            "byteLength" : 34776,
            "byteOffset" : 0
        },
        {
            "buffer" : 0,
            "byteLength" : 34776,
            "byteOffset" : 34776
        },
        {
            "buffer" : 0,
            "byteLength" : 23184,
            "byteOffset" : 69552
        },
        {
            "buffer" : 0,
            "byteLength" : 22140,
            "byteOffset" : 92736
        }
    ],
    "buffers" : [
        {
            "byteLength" : 114876,
            "uri" : "data:application/octet-stream;base64,"
        }
    ]
}
